<svg xmlns="http://www.w3.org/2000/svg" width="118" height="36" viewBox="0 0 118 36">
    <g fill="#FFF" fill-rule="evenodd">
        <path d="M27.505 13v8.91h-2.347v-7.024H17V13zM33.494 19.862h5.812v-4.958h-5.812v4.958zm-2.347 1.886H41.67V13H31.147v8.748zM55.98 20.13v1.887H45.313V13h10.522v1.886h-8.14v1.617h7.996v1.886h-7.996v1.742zM63.864 20.257h2.816v-5.371h-2.816v5.37zm7.04 0v1.886H59.621v-1.886h1.86v-5.371h-1.607V13h10.776v1.886h-1.589v5.37h1.841zM85.357 20.203v1.922H74.564v-5.568h8.285v-1.689h-8.303V13h10.559v5.425H76.82v1.778zM100.877 19.862v1.885H95.39V13h5.396v1.886h-3.05v4.976h3.14zm-9.53-.072c1.137-.018 2.093-.108 3.176-.342l.217 1.94c-1.552.324-2.888.36-4.765.36H89V13h5.45v1.886h-3.104v4.904z"/>
    </g>
</svg>
