<svg xmlns="http://www.w3.org/2000/svg" width="396" height="225" viewBox="0 0 396 225">
    <g fill="none" fill-rule="evenodd">
        <g stroke="#8578D2" stroke-linecap="round" stroke-linejoin="round" stroke-width="6">
            <path d="M192.773 51.45h-43.16l-21.166 40.394v112.573h150.148V91.844L257.43 51.45h-13.663M278.595 91H128.447"/>
            <path d="M245.192 72.971h-84.995l14.225-.13 59.036-69.394 29.821 25.427-37.433 43.6M242.255 169.095l-18.6-18.62 18.6-18.62M164.787 169.095l18.6-18.62-18.6-18.62"/>
        </g>
        <path stroke="#F8E71C" stroke-width="2" d="M82.592 128H46.481M36.111 224H0M59.321 120h-18.84M49.84 216H31M61.84 219H52.5M105.84 86H87"/>
        <path fill="#8578D2" d="M94.859 75.414l2.992-2.992.643-.643-1.285-1.285-.643.642-2.992 2.993-2.993-2.993-.643-.642-1.285 1.285.643.643 2.992 2.992-2.992 2.993-.643.642 1.285 1.286.643-.643 2.993-2.993 2.992 2.993.643.643 1.285-1.286-.643-.642-2.992-2.993z"/>
        <path stroke="#F8E71C" stroke-width="2" d="M36.901 120h-9.42"/>
        <circle cx="81.159" cy="59" r="1" fill="#8578D2"/>
        <circle cx="82" cy="164" r="1" fill="#8578D2"/>
        <circle cx="69.159" cy="55" r="1" fill="#8578D2"/>
        <circle cx="79.659" cy="65.5" r="2.5" fill="#8578D2"/>
        <circle cx="75.5" cy="160.5" r="2.5" fill="#8578D2"/>
        <path fill="#8578D2" d="M44.48 103.951a5.32 5.32 0 0 1 5.278-5.318 8.446 8.446 0 0 1 7.959-6.248 8.445 8.445 0 0 1 16.89.008 8.446 8.446 0 1 1 .467 16.879h-25.65v-.019a5.317 5.317 0 0 1-4.943-5.302M33.978 184.98c.026-.243.043-.489.043-.74 0-3.446-2.545-6.24-5.684-6.24-3.138 0-5.683 2.794-5.683 6.24 0 .231.013.458.035.682-2.153.888-3.689 3.163-3.689 5.837 0 3.447 2.545 6.241 5.684 6.241 1.22 0 2.347-.426 3.273-1.145v7.999h.609v-7.999c.925.719 2.053 1.145 3.273 1.145 3.139 0 5.684-2.794 5.684-6.24 0-2.616-1.467-4.852-3.545-5.78M66.418 198.868L60.708 186 55 198.868h5.383v5.002h.521v-5.002zM54.418 198.868L48.708 186 43 198.868h5.383v5.002h.521v-5.002z"/>
        <path stroke="#F8E71C" stroke-width="2" d="M357.121 95h-28.785M332.745 103h-18.41M368.562 95h-6.226M387.55 212H368M394.211 217h-9.692"/>
        <path fill="#8578D2" d="M343.839 176.123l4.744.088 1.019.019-.038-2.038-1.019-.019-4.744-.087-.088-4.745-.019-1.019-2.037-.037.019 1.019.087 4.744-4.744-.087-1.019-.02.038 2.038 1.018.02 4.745.087.088 4.744.018 1.02 2.038.037-.019-1.02-.087-4.744zM306.108 45.067l1.89 1.96.405.422.812-.842-.406-.421-1.89-1.961 1.89-1.962.406-.42-.812-.843-.405.421-1.89 1.961-1.89-1.96-.406-.422-.812.842.406.421 1.89 1.962-1.89 1.96-.406.422.812.842.406-.421 1.89-1.961z"/>
        <ellipse cx="301.75" cy="49.723" fill="#8578D2" rx="1" ry="1"/>
        <ellipse cx="333.038" cy="164.285" fill="#8578D2" rx="1.038" ry="1"/>
        <path fill="#8578D2" d="M352.616 77.597c0-2.99-2.504-5.416-5.602-5.44-1.007-3.622-4.395-6.303-8.448-6.393-.036-4.743-4.034-8.578-8.964-8.578-4.933 0-8.934 3.84-8.965 8.587a9.346 9.346 0 0 0-.495-.014c-4.952 0-8.966 3.869-8.966 8.64 0 4.773 4.014 8.641 8.966 8.641h27.226v-.02c2.932-.198 5.248-2.547 5.248-5.423M370.851 195.084c.013-.109.022-.218.022-.33 0-1.537-1.266-2.783-2.828-2.783-1.562 0-2.828 1.246-2.828 2.783 0 .103.006.204.017.304-1.071.396-1.835 1.41-1.835 2.603 0 1.537 1.266 2.783 2.828 2.783.607 0 1.168-.19 1.628-.51v3.566h.304v-3.567c.46.32 1.021.51 1.628.51 1.562 0 2.828-1.245 2.828-2.782 0-1.166-.73-2.163-1.764-2.577M360.453 195.084c.013-.109.022-.218.022-.33 0-1.537-1.267-2.783-2.829-2.783-1.562 0-2.828 1.246-2.828 2.783 0 .103.007.204.018.304-1.072.396-1.836 1.41-1.836 2.603 0 1.537 1.266 2.783 2.828 2.783.607 0 1.168-.19 1.629-.51v3.566h.303v-3.567c.46.32 1.022.51 1.629.51 1.562 0 2.828-1.245 2.828-2.782 0-1.166-.73-2.163-1.764-2.577M395.335 198.395l-6.847-12.765-6.846 12.765h6.456v4.96h.625v-4.96z"/>
    </g>
</svg>
